<svg width="26" height="26" viewBox="0 0 26 26" fill="none" xmlns="http://www.w3.org/2000/svg">
<rect width="26" height="26" rx="7" fill="#F9F9FA"/>
<path fill-rule="evenodd" clip-rule="evenodd" d="M7.22228 5.77734H18.7778C19.5756 5.77734 20.2223 6.42404 20.2223 7.22179V18.7773C20.2223 19.5751 19.5756 20.2218 18.7778 20.2218H7.22228C6.42453 20.2218 5.77783 19.5751 5.77783 18.7773V7.22179C5.77783 6.42404 6.42453 5.77734 7.22228 5.77734ZM7.22228 7.22179V15.5892L10.1111 12.7004L12.6389 15.2281L17.3334 10.5337L18.7778 11.9782V7.22179H7.22228ZM7.22228 18.7773V17.632L10.1111 14.7431L14.1454 18.7773H7.22228ZM18.7778 18.7773H16.1881L13.6603 16.2495L17.3334 12.5765L18.7778 14.0209V18.7773ZM14.4445 10.1107C14.4445 8.91406 13.4744 7.94401 12.2778 7.94401C11.0812 7.94401 10.1112 8.91406 10.1112 10.1107C10.1112 11.3073 11.0812 12.2773 12.2778 12.2773C13.4744 12.2773 14.4445 11.3073 14.4445 10.1107ZM11.5556 10.1107C11.5556 9.7118 11.879 9.38845 12.2778 9.38845C12.6767 9.38845 13.0001 9.7118 13.0001 10.1107C13.0001 10.5095 12.6767 10.8329 12.2778 10.8329C11.879 10.8329 11.5556 10.5095 11.5556 10.1107Z" fill="#393939"/>
</svg>
