<svg width="36" height="36" viewBox="0 0 36 36" fill="none" xmlns="http://www.w3.org/2000/svg">
<rect width="36" height="36" rx="5" transform="matrix(-1 0 0 1 36 0)" fill="#393939"/>
<path fill-rule="evenodd" clip-rule="evenodd" d="M20 12C20 12.2874 20.0303 12.5678 20.0879 12.838L15.0169 15.3735C14.2836 14.5319 13.2039 14 12 14C9.79086 14 8 15.7909 8 18C8 20.2091 9.79086 22 12 22C13.2039 22 14.2836 21.4681 15.0169 20.6265L20.0879 23.162C20.0303 23.4322 20 23.7126 20 24C20 26.2091 21.7909 28 24 28C26.2091 28 28 26.2091 28 24C28 21.7909 26.2091 20 24 20C22.7961 20 21.7164 20.5319 20.9831 21.3735L15.9121 18.838C15.9697 18.5678 16 18.2874 16 18C16 17.7126 15.9697 17.4322 15.9121 17.162L20.9831 14.6265C21.7164 15.4681 22.7961 16 24 16C26.2091 16 28 14.2091 28 12C28 9.79086 26.2091 8 24 8C21.7909 8 20 9.79086 20 12ZM14 18C14 19.1046 13.1046 20 12 20C10.8954 20 10 19.1046 10 18C10 16.8954 10.8954 16 12 16C13.1046 16 14 16.8954 14 18ZM24 14C25.1046 14 26 13.1046 26 12C26 10.8954 25.1046 10 24 10C22.8954 10 22 10.8954 22 12C22 13.1046 22.8954 14 24 14ZM26 24C26 25.1046 25.1046 26 24 26C22.8954 26 22 25.1046 22 24C22 22.8954 22.8954 22 24 22C25.1046 22 26 22.8954 26 24Z" fill="white"/>
</svg>
