<svg width="36" height="36" viewBox="0 0 36 36" fill="none" xmlns="http://www.w3.org/2000/svg">
<rect width="36" height="36" rx="7" fill="#F9F9FA"/>
<path fill-rule="evenodd" clip-rule="evenodd" d="M22.4297 17.348C24.5154 18.1296 26 20.1414 26 22.5C26 25.5376 23.5376 28 20.5 28H12V8H18.5C21.5376 8 24 10.4624 24 13.5C24 14.998 23.4011 16.3562 22.4297 17.348ZM18.5 17C20.433 17 22 15.433 22 13.5C22 11.567 20.433 10 18.5 10H14V17H18.5ZM14 26V19H20.5C22.433 19 24 20.567 24 22.5C24 24.433 22.433 26 20.5 26H14Z" fill="black"/>
</svg>
