<svg width="26" height="26" viewBox="0 0 26 26" fill="none" xmlns="http://www.w3.org/2000/svg">
<rect width="26" height="26" rx="5" transform="matrix(-1 0 0 1 26 0)" fill="#393939"/>
<path fill-rule="evenodd" clip-rule="evenodd" d="M14.444 8.66623C14.444 8.87384 14.4659 9.07633 14.5075 9.27153L10.8452 11.1027C10.3156 10.4948 9.53576 10.1107 8.66623 10.1107C7.07074 10.1107 5.77734 11.4041 5.77734 12.9996C5.77734 14.5951 7.07074 15.8885 8.66623 15.8885C9.53573 15.8885 10.3155 15.5043 10.8451 14.8965L14.5075 16.7277C14.4659 16.9229 14.444 17.1253 14.444 17.3329C14.444 18.9284 15.7374 20.2218 17.3329 20.2218C18.9284 20.2218 20.2218 18.9284 20.2218 17.3329C20.2218 15.7374 18.9284 14.444 17.3329 14.444C16.4634 14.444 15.6836 14.8282 15.154 15.436L11.4916 13.6048C11.5332 13.4096 11.5551 13.2072 11.5551 12.9996C11.5551 12.792 11.5332 12.5896 11.4916 12.3944L15.154 10.5632C15.6837 11.171 16.4634 11.5551 17.3329 11.5551C18.9284 11.5551 20.2218 10.2617 20.2218 8.66623C20.2218 7.07074 18.9284 5.77734 17.3329 5.77734C15.7374 5.77734 14.444 7.07074 14.444 8.66623ZM10.1107 12.9996C10.1107 13.7973 9.46398 14.444 8.66623 14.444C7.86849 14.444 7.22179 13.7973 7.22179 12.9996C7.22179 12.2018 7.86849 11.5551 8.66623 11.5551C9.46398 11.5551 10.1107 12.2018 10.1107 12.9996ZM17.3329 10.1107C18.1306 10.1107 18.7773 9.46398 18.7773 8.66623C18.7773 7.86849 18.1306 7.22179 17.3329 7.22179C16.5352 7.22179 15.8885 7.86849 15.8885 8.66623C15.8885 9.46398 16.5352 10.1107 17.3329 10.1107ZM18.7773 17.3329C18.7773 18.1306 18.1306 18.7773 17.3329 18.7773C16.5352 18.7773 15.8885 18.1306 15.8885 17.3329C15.8885 16.5352 16.5352 15.8885 17.3329 15.8885C18.1306 15.8885 18.7773 16.5352 18.7773 17.3329Z" fill="white"/>
</svg>
