<svg width="26" height="26" viewBox="0 0 26 26" fill="none" xmlns="http://www.w3.org/2000/svg">
<rect width="26" height="26" rx="7" fill="#F9F9FA"/>
<path fill-rule="evenodd" clip-rule="evenodd" d="M16.1996 12.5287C17.7059 13.0932 18.7781 14.5462 18.7781 16.2496C18.7781 18.4434 16.9997 20.2218 14.8059 20.2218H8.66699V5.77734H13.3614C15.5552 5.77734 17.3337 7.55577 17.3337 9.74957C17.3337 10.8315 16.9011 11.8123 16.1996 12.5287ZM13.3614 12.2773C14.7575 12.2773 15.8892 11.1456 15.8892 9.74957C15.8892 8.35351 14.7575 7.22179 13.3614 7.22179H10.1114V12.2773H13.3614ZM10.1114 18.7773V13.7218H14.8059C16.2019 13.7218 17.3337 14.8535 17.3337 16.2496C17.3337 17.6456 16.2019 18.7773 14.8059 18.7773H10.1114Z" fill="#393939"/>
</svg>
