<svg width="36" height="36" viewBox="0 0 36 36" fill="none" xmlns="http://www.w3.org/2000/svg">
<rect width="36" height="36" rx="5" transform="matrix(-1 0 0 1 36 0)" fill="#393939"/>
<path fill-rule="evenodd" clip-rule="evenodd" d="M10 11V22C8.89543 22 8 21.1046 8 20V10C8 8.89543 8.89543 8 10 8H20C21.1046 8 22 8.89543 22 10H11C10.4477 10 10 10.4477 10 11ZM13 25V14C13 13.4477 13.4477 13 14 13H25C25 11.8954 24.1046 11 23 11H13C11.8954 11 11 11.8954 11 13V23C11 24.1046 11.8954 25 13 25ZM16 14H26C27.1046 14 28 14.8954 28 16V26C28 27.1046 27.1046 28 26 28H16C14.8954 28 14 27.1046 14 26V16C14 14.8954 14.8954 14 16 14ZM26 26V16H16V26H26Z" fill="white"/>
</svg>
